# xmcd CD database file
#
# Track frame offsets:
#	150
#	15088
#	30005
#	43725
#
# Disc length: 874 seconds
#
# Revision: 0
# Processed by: cddbd v1.5PL3 Copyright (c) Steve Scherf et al.
# Submitted via: CDex 1.50beta8
#
DISCID=19036804
DTITLE=AliceSoft - 夜が来る! Sound selection
DYEAR=1900
DGENRE=Game
TTITLE0=A night come's! -Original Mix-
TTITLE1=A night come's! -Instrumental-
TTITLE2=まるちっぽ☆うにーく
TTITLE3=データ
EXTD=
EXTT0=
EXTT1=
EXTT2=
EXTT3=
PLAYORDER=
